<svg width="1208" height="174" viewBox="0 0 1208 174" fill="none" xmlns="http://www.w3.org/2000/svg">
<rect x="1208" y="173.756" width="6.95023" height="173.756" transform="rotate(-180 1208 173.756)" fill="white"/>
<rect x="1180.2" y="173.756" width="6.95023" height="144.217" transform="rotate(-180 1180.2 173.756)" fill="white"/>
<rect x="1150.66" y="173.756" width="6.95023" height="144.217" transform="rotate(-180 1150.66 173.756)" fill="white"/>
<rect x="1133.28" y="173.756" width="6.95023" height="144.217" transform="rotate(-180 1133.28 173.756)" fill="white"/>
<rect x="1058.57" y="29.5386" width="6.95023" height="144.217" fill="white"/>
<rect x="1022.08" y="29.5386" width="6.95023" height="144.217" fill="white"/>
<rect x="1046.41" y="29.5386" width="6.95023" height="144.217" fill="white"/>
<rect x="1041.19" y="29.5386" width="6.95023" height="144.217" fill="white"/>
<rect x="1088.11" y="29.5386" width="6.95023" height="144.217" fill="white"/>
<rect x="1079.42" y="29.5386" width="6.95023" height="144.217" fill="white"/>
<rect x="1114.17" y="29.5386" width="6.95023" height="144.217" fill="white"/>
<rect width="6.95023" height="173.756" transform="matrix(1 8.74228e-08 8.74228e-08 -1 823.998 173.756)" fill="white"/>
<rect width="6.95023" height="144.217" transform="matrix(1 8.74228e-08 8.74228e-08 -1 851.8 173.756)" fill="white"/>
<rect width="6.95023" height="144.217" transform="matrix(1 8.74228e-08 8.74228e-08 -1 881.338 173.756)" fill="white"/>
<rect width="6.95023" height="144.217" transform="matrix(1 8.74228e-08 8.74228e-08 -1 898.713 173.756)" fill="white"/>
<rect width="6.95023" height="144.217" transform="matrix(-1 0 0 1 973.429 29.5386)" fill="white"/>
<rect width="6.95023" height="144.217" transform="matrix(-1 0 0 1 1009.92 29.5386)" fill="white"/>
<rect width="6.95023" height="144.217" transform="matrix(-1 0 0 1 985.591 29.5386)" fill="white"/>
<rect width="6.95023" height="144.217" transform="matrix(-1 0 0 1 990.804 29.5386)" fill="white"/>
<rect width="6.95023" height="144.217" transform="matrix(-1 0 0 1 943.89 29.5386)" fill="white"/>
<rect width="6.95023" height="144.217" transform="matrix(-1 0 0 1 952.577 29.5386)" fill="white"/>
<rect width="6.95023" height="144.217" transform="matrix(-1 0 0 1 917.826 29.5386)" fill="white"/>
<rect x="795.999" y="173.756" width="6.95023" height="173.756" transform="rotate(-180 795.999 173.756)" fill="white"/>
<rect x="768.197" y="173.756" width="6.95023" height="144.217" transform="rotate(-180 768.197 173.756)" fill="white"/>
<rect x="738.659" y="173.756" width="6.95023" height="144.217" transform="rotate(-180 738.659 173.756)" fill="white"/>
<rect x="721.283" y="173.756" width="6.95023" height="144.217" transform="rotate(-180 721.283 173.756)" fill="white"/>
<rect x="646.568" y="29.5385" width="6.95023" height="144.217" fill="white"/>
<rect x="610.08" y="29.5385" width="6.95023" height="144.217" fill="white"/>
<rect x="634.406" y="29.5385" width="6.95023" height="144.217" fill="white"/>
<rect x="629.193" y="29.5385" width="6.95023" height="144.217" fill="white"/>
<rect x="676.107" y="29.5386" width="6.95023" height="144.217" fill="white"/>
<rect x="667.42" y="29.5385" width="6.95023" height="144.217" fill="white"/>
<rect x="702.171" y="29.5386" width="6.95023" height="144.217" fill="white"/>
<rect width="6.95023" height="173.756" transform="matrix(1 8.74228e-08 8.74228e-08 -1 411.999 173.756)" fill="white"/>
<rect width="6.95023" height="144.217" transform="matrix(1 8.74228e-08 8.74228e-08 -1 439.801 173.756)" fill="white"/>
<rect width="6.95023" height="144.217" transform="matrix(1 8.74228e-08 8.74228e-08 -1 469.339 173.756)" fill="white"/>
<rect width="6.95023" height="144.217" transform="matrix(1 8.74228e-08 8.74228e-08 -1 486.714 173.756)" fill="white"/>
<rect width="6.95023" height="144.217" transform="matrix(-1 0 0 1 561.43 29.5385)" fill="white"/>
<rect width="6.95023" height="144.217" transform="matrix(-1 0 0 1 597.918 29.5385)" fill="white"/>
<rect width="6.95023" height="144.217" transform="matrix(-1 0 0 1 573.592 29.5385)" fill="white"/>
<rect width="6.95023" height="144.217" transform="matrix(-1 0 0 1 578.805 29.5385)" fill="white"/>
<rect width="6.95023" height="144.217" transform="matrix(-1 0 0 1 531.891 29.5385)" fill="white"/>
<rect width="6.95023" height="144.217" transform="matrix(-1 0 0 1 540.578 29.5385)" fill="white"/>
<rect width="6.95023" height="144.217" transform="matrix(-1 0 0 1 505.827 29.5385)" fill="white"/>
<rect x="384" y="173.756" width="6.95023" height="173.756" transform="rotate(-180 384 173.756)" fill="white"/>
<rect x="356.198" y="173.756" width="6.95023" height="144.217" transform="rotate(-180 356.198 173.756)" fill="white"/>
<rect x="326.66" y="173.756" width="6.95023" height="144.217" transform="rotate(-180 326.66 173.756)" fill="white"/>
<rect x="309.284" y="173.756" width="6.95023" height="144.217" transform="rotate(-180 309.284 173.756)" fill="white"/>
<rect x="234.569" y="29.5385" width="6.95023" height="144.217" fill="white"/>
<rect x="198.081" y="29.5385" width="6.95023" height="144.217" fill="white"/>
<rect x="222.407" y="29.5385" width="6.95023" height="144.217" fill="white"/>
<rect x="217.194" y="29.5385" width="6.95023" height="144.217" fill="white"/>
<rect x="264.108" y="29.5386" width="6.95023" height="144.217" fill="white"/>
<rect x="255.421" y="29.5385" width="6.95023" height="144.217" fill="white"/>
<rect x="290.172" y="29.5386" width="6.95023" height="144.217" fill="white"/>
<rect width="6.95023" height="173.756" transform="matrix(1 8.74228e-08 8.74228e-08 -1 0 173.756)" fill="white"/>
<rect width="6.95023" height="144.217" transform="matrix(1 8.74228e-08 8.74228e-08 -1 27.8018 173.756)" fill="white"/>
<rect width="6.95023" height="144.217" transform="matrix(1 8.74228e-08 8.74228e-08 -1 57.3398 173.756)" fill="white"/>
<rect width="6.95023" height="144.217" transform="matrix(1 8.74228e-08 8.74228e-08 -1 74.7148 173.756)" fill="white"/>
<rect width="6.95023" height="144.217" transform="matrix(-1 0 0 1 149.431 29.5385)" fill="white"/>
<rect width="6.95023" height="144.217" transform="matrix(-1 0 0 1 185.919 29.5385)" fill="white"/>
<rect width="6.95023" height="144.217" transform="matrix(-1 0 0 1 161.593 29.5385)" fill="white"/>
<rect width="6.95023" height="144.217" transform="matrix(-1 0 0 1 166.806 29.5385)" fill="white"/>
<rect width="6.95023" height="144.217" transform="matrix(-1 0 0 1 119.892 29.5385)" fill="white"/>
<rect width="6.95023" height="144.217" transform="matrix(-1 0 0 1 128.579 29.5385)" fill="white"/>
<rect width="6.95023" height="144.217" transform="matrix(-1 0 0 1 93.8281 29.5385)" fill="white"/>
<rect x="1208" y="173.756" width="6.95023" height="173.756" transform="rotate(-180 1208 173.756)" fill="white"/>
<rect x="1180.2" y="173.754" width="6.95023" height="144.217" transform="rotate(-180 1180.2 173.754)" fill="white"/>
<rect x="1150.66" y="173.756" width="6.95023" height="144.217" transform="rotate(-180 1150.66 173.756)" fill="white"/>
<rect x="1133.29" y="173.756" width="6.95023" height="144.217" transform="rotate(-180 1133.29 173.756)" fill="white"/>
<rect x="1058.57" y="29.5391" width="6.95023" height="144.217" fill="white"/>
<rect x="1022.08" y="29.5391" width="6.95023" height="144.217" fill="white"/>
<rect x="1046.41" y="29.5391" width="6.95023" height="144.217" fill="white"/>
<rect x="1041.19" y="29.5371" width="6.95023" height="144.217" fill="white"/>
<rect x="1088.11" y="29.5391" width="6.95023" height="144.217" fill="white"/>
<rect x="1079.42" y="29.5391" width="6.95023" height="144.217" fill="white"/>
<rect x="1114.17" y="29.5371" width="6.95023" height="144.217" fill="white"/>
</svg>
