<svg width="40" height="108" viewBox="0 0 40 108" fill="none" xmlns="http://www.w3.org/2000/svg">
<path d="M39.592 9.116C39.592 9.788 39.48 10.488 39.312 11.16C39.116 11.832 38.808 12.42 38.388 12.98C37.968 13.512 37.436 13.96 36.764 14.296C36.092 14.632 35.308 14.8 34.356 14.8C33.404 14.8 32.592 14.604 31.948 14.212C31.276 13.82 30.744 13.288 30.296 12.616C29.848 13.288 29.288 13.82 28.644 14.212C27.972 14.604 27.188 14.8 26.236 14.8C25.284 14.8 24.472 14.632 23.8 14.296C23.128 13.96 22.596 13.512 22.176 12.98C21.756 12.42 21.448 11.832 21.28 11.16C21.084 10.488 21 9.788 21 9.116L21 0.379999L39.592 0.38L39.592 9.116ZM26.236 12.28C27.188 12.28 27.888 11.972 28.392 11.384C28.868 10.796 29.12 10.04 29.12 9.088L29.12 2.9L23.352 2.9L23.352 9.088C23.352 10.04 23.576 10.796 24.08 11.384C24.556 11.972 25.284 12.28 26.236 12.28ZM34.356 12.28C35.308 12.28 36.008 11.972 36.512 11.384C36.988 10.796 37.24 10.04 37.24 9.088L37.24 2.9L31.472 2.9L31.472 9.088C31.472 10.04 31.696 10.796 32.2 11.384C32.676 11.972 33.404 12.28 34.356 12.28ZM21 31.1117L29.12 31.1117L29.12 20.2477L21 20.2477L21 17.7277L39.592 17.7277L39.592 20.2477L31.472 20.2477L31.472 31.1117L39.592 31.1117L39.592 33.6317L21 33.6317L21 31.1117ZM37.24 39.9195L31.472 39.9195L31.472 49.8035L29.12 49.8035L29.12 39.9195L23.352 39.9195L23.352 49.9995L21 49.9995L21 37.3995L39.592 37.3995L39.592 49.9995L37.24 49.9995L37.24 39.9195ZM14.132 15.36C13.236 15.36 12.452 15.192 11.78 14.912C11.108 14.632 10.52 14.212 10.072 13.708C9.624 13.176 9.26 12.56 9.036 11.832C8.784 11.104 8.672 10.292 8.672 9.424L8.672 2.9L1 2.9L1 0.379998L19.592 0.379999L19.592 9.424C19.592 10.292 19.452 11.104 19.228 11.832C18.976 12.56 18.612 13.176 18.164 13.708C17.716 14.212 17.128 14.632 16.456 14.912C15.784 15.192 15 15.36 14.132 15.36ZM14.132 12.84C15.14 12.84 15.896 12.504 16.428 11.888C16.96 11.244 17.24 10.432 17.24 9.424L17.24 2.9L11.024 2.9L11.024 9.424C11.024 10.432 11.276 11.244 11.808 11.888C12.34 12.504 13.124 12.84 14.132 12.84ZM0.999999 16.4204L0.999999 13.8164L19.592 21.9924L19.592 24.7364L0.999998 32.8844L0.999999 30.1964L5.312 28.3204L5.312 18.2964L0.999999 16.4204ZM16.848 23.3084L7.636 19.3044L7.636 27.3124L16.848 23.3084ZM6.572 49.235C5.788 49.235 5.088 49.095 4.416 48.843C3.744 48.591 3.156 48.199 2.652 47.695C2.148 47.191 1.728 46.519 1.448 45.735C1.14 44.923 0.999998 43.971 0.999998 42.879L0.999998 34.255L19.592 34.255L19.592 48.115L17.24 48.115L17.24 36.775L12.144 36.775L12.144 42.879C12.144 43.971 11.976 44.923 11.696 45.735C11.388 46.519 10.996 47.191 10.492 47.695C9.988 48.199 9.372 48.591 8.7 48.843C8.028 49.095 7.3 49.235 6.572 49.235ZM6.572 46.715C7.636 46.715 8.42 46.351 8.98 45.679C9.512 44.979 9.792 44.055 9.792 42.879L9.792 36.775L3.352 36.775L3.352 42.879C3.352 44.055 3.604 44.979 4.164 45.679C4.696 46.351 5.508 46.715 6.572 46.715ZM19.956 60.1674C19.956 61.5114 19.704 62.7434 19.2 63.9194C18.696 65.0954 18.024 66.1034 17.184 66.9714C16.316 67.8114 15.28 68.4834 14.104 68.9874C12.928 69.4634 11.64 69.7154 10.296 69.7154C8.896 69.7154 7.636 69.4634 6.46 68.9874C5.284 68.4834 4.248 67.8114 3.408 66.9714C2.54 66.1034 1.868 65.0954 1.364 63.9194C0.859997 62.7434 0.635997 61.5114 0.635997 60.1674C0.635997 58.8234 0.859997 57.5634 1.364 56.3874C1.868 55.2114 2.54 54.2034 3.408 53.3634C4.248 52.4954 5.284 51.8234 6.46 51.3474C7.636 50.8434 8.896 50.6194 10.296 50.6194C11.64 50.6194 12.928 50.8434 14.104 51.3474C15.28 51.8234 16.316 52.4954 17.184 53.3634C18.024 54.2034 18.696 55.2114 19.2 56.3874C19.704 57.5634 19.956 58.8234 19.956 60.1674ZM17.604 60.1674C17.604 59.1594 17.408 58.2074 17.044 57.3674C16.68 56.5274 16.176 55.7714 15.532 55.1554C14.86 54.5114 14.104 54.0074 13.208 53.6714C12.312 53.3074 11.332 53.1394 10.296 53.1394C9.232 53.1394 8.28 53.3074 7.384 53.6714C6.488 54.0074 5.704 54.5114 5.06 55.1554C4.388 55.7714 3.884 56.5274 3.52 57.3674C3.156 58.2074 2.988 59.1594 2.988 60.1674C2.988 61.1754 3.156 62.0994 3.52 62.9394C3.884 63.7794 4.388 64.5354 5.06 65.1794C5.704 65.7954 6.488 66.2994 7.384 66.6634C8.28 66.9994 9.232 67.1954 10.296 67.1954C11.332 67.1954 12.312 66.9994 13.208 66.6634C14.104 66.2994 14.86 65.7954 15.532 65.1794C16.176 64.5354 16.68 63.7794 17.044 62.9394C17.408 62.0994 17.604 61.1754 17.604 60.1674ZM19.592 85.6508L17.24 85.6508L17.24 79.2108L0.999996 79.2108L0.999997 76.6908L17.24 76.6908L17.24 70.2508L19.592 70.2508L19.592 85.6508ZM0.999995 107.264L0.999995 104.744L19.592 104.744L19.592 107.264L0.999995 107.264ZM6.572 102.14C5.788 102.14 5.088 102 4.416 101.748C3.744 101.496 3.156 101.104 2.652 100.6C2.148 100.096 1.728 99.4238 1.448 98.6398C1.14 97.8278 0.999996 96.8758 0.999996 95.7838L0.999996 87.7198L19.592 87.7198L19.592 90.2398L12.144 90.2398L12.144 95.7838C12.144 96.8758 11.976 97.8278 11.696 98.6398C11.388 99.4238 10.996 100.096 10.492 100.6C9.988 101.104 9.372 101.496 8.7 101.748C8.028 102 7.3 102.14 6.572 102.14ZM6.572 99.6198C7.636 99.6198 8.42 99.2558 8.98 98.5838C9.512 97.8838 9.792 96.9598 9.792 95.7838L9.792 90.2398L3.352 90.2398L3.352 95.7838C3.352 96.9598 3.604 97.8838 4.164 98.5838C4.696 99.2558 5.508 99.6198 6.572 99.6198Z" fill="#C0C0C0"/>
</svg>
