<svg width="41" height="89" viewBox="0 0 41 89" fill="none" xmlns="http://www.w3.org/2000/svg">
<path d="M27.572 15.36C26.788 15.36 26.088 15.22 25.416 14.968C24.744 14.716 24.156 14.324 23.652 13.82C23.148 13.316 22.728 12.644 22.448 11.86C22.14 11.048 22 10.096 22 9.004L22 0.379999L40.592 0.38L40.592 14.24L38.24 14.24L38.24 2.9L33.144 2.9L33.144 9.004C33.144 10.096 32.976 11.048 32.696 11.86C32.388 12.644 31.996 13.316 31.492 13.82C30.988 14.324 30.372 14.716 29.7 14.968C29.028 15.22 28.3 15.36 27.572 15.36ZM27.572 12.84C28.636 12.84 29.42 12.476 29.98 11.804C30.512 11.104 30.792 10.18 30.792 9.004L30.792 2.9L24.352 2.9L24.352 9.004C24.352 10.18 24.604 11.104 25.164 11.804C25.696 12.476 26.508 12.84 27.572 12.84ZM40.592 32.8444L22 32.8444L22 30.3244L38.24 30.3244L38.24 22.3164L32.024 22.3164C30.848 22.3164 29.644 22.2604 28.468 22.2044C27.292 22.1204 26.2 21.8964 25.248 21.5604C24.296 21.2244 23.512 20.6924 22.896 20.0204C22.28 19.3204 22 18.3684 22 17.1364L22 15.9044L24.408 15.9044L24.408 16.6884C24.408 17.4724 24.632 18.0604 25.08 18.4804C25.528 18.9004 26.088 19.2084 26.816 19.4044C27.544 19.6004 28.356 19.7124 29.252 19.7404C30.148 19.7684 31.072 19.7964 32.024 19.7964L40.592 19.7964L40.592 32.8444ZM22 36.8306L22 34.2266L40.592 42.4026L40.592 45.1466L22 53.2946L22 50.6066L26.312 48.7306L26.312 38.7066L22 36.8306ZM37.848 43.7186L28.636 39.7146L28.636 47.7226L37.848 43.7186ZM22 68.0492L30.12 68.0492L30.12 57.1852L22 57.1852L22 54.6652L40.592 54.6652L40.592 57.1852L32.472 57.1852L32.472 68.0492L40.592 68.0492L40.592 70.5692L22 70.5692L22 68.0492ZM22 88.953L22 85.593L30.036 76.857L22 76.857L22 74.337L40.592 74.337L40.592 76.857L32.556 76.857L40.592 85.593L40.592 88.953L31.296 79.013L22 88.953ZM5.572 15.36C4.788 15.36 4.088 15.22 3.416 14.968C2.744 14.716 2.156 14.324 1.652 13.82C1.148 13.316 0.727999 12.644 0.447999 11.86C0.139999 11.048 -5.28733e-07 10.096 -4.81e-07 9.004L-1.04033e-07 0.379998L18.592 0.379999L18.592 14.24L16.24 14.24L16.24 2.9L11.144 2.9L11.144 9.004C11.144 10.096 10.976 11.048 10.696 11.86C10.388 12.644 9.996 13.316 9.492 13.82C8.988 14.324 8.372 14.716 7.7 14.968C7.028 15.22 6.3 15.36 5.572 15.36ZM5.572 12.84C6.636 12.84 7.42 12.476 7.98 11.804C8.512 11.104 8.792 10.18 8.792 9.004L8.792 2.9L2.352 2.9L2.352 9.004C2.352 10.18 2.604 11.104 3.164 11.804C3.696 12.476 4.508 12.84 5.572 12.84ZM-8.78091e-07 18.0884L-7.64266e-07 15.4844L18.592 23.6604L18.592 26.4044L-1.59776e-06 34.5524L-1.48026e-06 31.8644L4.312 29.9884L4.312 19.9644L-8.78091e-07 18.0884ZM15.848 24.9764L6.636 20.9724L6.636 28.9804L15.848 24.9764ZM-2.2427e-06 49.307L8.12 49.307L8.12 38.443L-1.76782e-06 38.443L-1.65767e-06 35.923L18.592 35.923L18.592 38.443L10.472 38.443L10.472 49.307L18.592 49.307L18.592 51.827L-2.35285e-06 51.827L-2.2427e-06 49.307ZM-3.15644e-06 70.2108L-3.00957e-06 66.8508L8.036 58.1148L-2.6277e-06 58.1148L-2.51755e-06 55.5948L18.592 55.5948L18.592 58.1148L10.556 58.1148L18.592 66.8508L18.592 70.2108L9.296 60.2708L-3.15644e-06 70.2108Z" fill="#C0C0C0"/>
</svg>
